if (_typeface_js && _typeface_js.loadFace) _typeface_js.loadFace({"glyphs":{"S":{"x_min":58.296875,"x_max":437.5,"ha":497,"o":"m 251 -11 b 437 191 377 -11 437 83 l 437 262 b 252 455 437 361 351 400 b 134 587 195 487 138 523 l 134 779 b 238 912 134 869 176 912 b 340 780 312 912 340 852 l 340 655 l 411 655 l 411 781 b 238 979 411 894 348 979 b 61 779 116 979 61 890 l 61 584 b 243 383 69 473 163 427 b 366 256 309 345 366 320 l 366 191 b 251 54 366 115 327 54 b 130 194 168 54 127 122 l 130 288 l 58 288 l 58 194 b 251 -11 56 70 137 -11 "},"/":{"x_min":22.21875,"x_max":322.21875,"ha":356,"o":"m 90 0 l 322 979 l 256 979 l 22 0 l 90 0 "},"K":{"x_min":72.21875,"x_max":488.890625,"ha":496,"o":"m 480 972 l 401 972 l 211 533 l 145 372 l 145 972 l 72 972 l 72 0 l 145 0 l 145 233 l 172 283 l 397 0 l 488 0 b 211 356 293 251 248 306 l 480 972 "},"7":{"x_min":27.78125,"x_max":379.171875,"ha":422,"o":"m 80 269 l 152 269 l 88 0 l 163 0 b 187 105 170 34 180 70 l 200 161 b 225 270 208 197 215 234 l 225 269 l 309 269 l 309 329 l 240 329 l 379 918 l 379 972 l 27 972 l 27 909 l 305 909 l 234 614 b 166 329 211 518 188 426 l 80 329 l 80 269 "},"d":{"x_min":62.5,"x_max":373.609375,"ha":436,"o":"m 373 616 b 212 776 373 752 291 776 l 62 776 l 62 0 l 212 0 b 373 158 250 0 373 5 l 373 616 m 302 158 b 212 68 302 84 254 68 l 136 68 l 136 711 l 212 711 b 302 616 262 711 300 700 l 302 158 "},",":{"x_min":41.671875,"x_max":111.109375,"ha":150,"o":"m 94 -95 l 111 5 l 111 119 l 41 119 l 41 -95 l 94 -95 "},"Y":{"x_min":22.21875,"x_max":466.671875,"ha":490,"o":"m 390 973 b 300 618 362 858 330 737 l 243 352 l 187 616 l 95 973 l 22 973 l 206 243 l 206 0 l 279 0 l 279 243 l 466 973 l 390 973 "},"E":{"x_min":73.609375,"x_max":411.109375,"ha":454,"o":"m 411 908 l 411 972 l 73 972 l 73 0 l 411 0 l 411 65 l 147 65 l 147 259 l 356 259 l 356 323 l 147 323 l 147 908 l 411 908 "},"y":{"x_min":20.828125,"x_max":387.5,"ha":411,"o":"m 311 777 l 238 495 l 202 308 l 165 497 l 91 777 l 20 777 l 165 195 l 165 0 l 237 0 l 237 195 l 387 777 l 311 777 "},"g":{"x_min":51.390625,"x_max":363.890625,"ha":411,"o":"m 193 272 l 193 209 l 295 209 l 295 159 b 208 61 295 93 259 61 b 125 159 154 61 125 101 l 125 616 b 212 719 125 676 154 719 b 295 616 268 719 295 673 l 295 540 l 363 540 l 363 616 b 212 783 363 715 302 783 b 51 616 105 783 51 708 l 51 159 b 208 -6 51 56 115 -6 b 362 159 305 -6 362 61 l 362 272 l 193 272 "},"e":{"x_min":61.109375,"x_max":341.671875,"ha":383,"o":"m 341 712 l 341 776 l 61 776 l 61 0 l 341 0 l 341 66 l 134 66 l 134 202 l 300 202 l 300 268 l 134 268 l 134 712 l 341 712 "},"J":{"x_min":36.109375,"x_max":415.28125,"ha":485,"o":"m 230 -9 b 415 194 355 -9 415 79 l 415 972 l 343 972 l 344 194 b 230 55 344 111 304 55 b 109 194 151 55 109 108 l 109 272 l 36 272 l 36 194 b 230 -9 36 62 112 -9 "},"q":{"x_min":51.390625,"x_max":363.890625,"ha":426,"o":"m 176 -113 l 245 -113 l 245 -4 b 363 159 323 11 363 83 l 363 618 b 209 783 363 706 305 783 b 51 618 105 783 51 704 l 51 158 b 176 -5 51 76 97 8 l 176 -113 m 209 718 b 291 618 268 718 291 668 l 291 159 b 209 59 291 104 266 59 b 125 158 152 59 125 105 l 125 618 b 209 718 125 673 152 718 "},"b":{"x_min":61.109375,"x_max":362.5,"ha":425,"o":"m 361 180 b 294 281 361 222 341 265 b 361 400 344 306 361 359 l 362 618 b 204 776 362 727 294 776 l 61 776 l 61 0 l 243 0 b 361 125 300 0 361 36 l 361 180 m 204 709 b 291 618 258 709 291 680 l 291 401 b 206 302 291 338 243 302 l 134 302 l 134 709 l 204 709 m 291 125 b 243 66 291 106 284 66 l 134 66 l 134 244 l 227 244 b 291 180 262 244 291 216 l 291 125 "},"D":{"x_min":75,"x_max":451.390625,"ha":521,"o":"m 451 776 b 255 972 451 958 352 972 l 75 972 l 75 0 l 255 0 b 451 191 300 0 451 -2 l 451 776 m 380 191 b 255 68 380 77 312 68 l 148 68 l 148 906 l 255 906 b 380 776 325 906 380 898 l 380 191 "},"z":{"x_min":19.4375,"x_max":322.21875,"ha":356,"o":"m 322 776 l 43 776 l 43 711 l 248 711 l 19 52 l 19 0 l 318 0 l 318 68 l 95 68 l 322 726 l 322 776 "},"w":{"x_min":33.328125,"x_max":594.4375,"ha":626,"o":"m 186 126 l 152 411 l 104 777 l 33 777 l 144 0 l 226 0 l 297 458 b 313 637 305 513 309 575 b 333 461 319 579 323 519 l 402 0 l 490 0 l 594 777 l 520 777 b 470 411 498 615 483 497 l 447 122 l 445 122 l 404 406 l 351 770 l 277 770 l 220 412 l 187 126 l 186 126 "},"$":{"x_min":48.59375,"x_max":362.53125,"ha":417,"o":"m 180 -80 l 223 -80 l 223 -6 b 362 158 316 0 362 72 l 362 220 b 223 373 363 295 290 334 l 223 711 b 272 619 258 700 272 662 l 272 513 l 341 513 l 341 620 b 223 779 341 704 298 768 l 223 852 l 180 852 l 180 780 b 48 618 90 773 48 705 l 48 473 b 180 319 50 404 104 363 l 180 59 b 122 159 138 72 119 113 l 122 240 l 48 240 l 48 159 b 180 -5 47 68 101 4 l 180 -80 m 123 476 l 123 618 b 180 712 123 675 145 705 l 180 400 b 123 476 145 425 125 447 m 291 216 l 291 158 b 223 58 291 106 269 65 l 223 294 b 291 216 263 269 291 248 "},"\\":{"x_min":25,"x_max":323.609375,"ha":356,"o":"m 256 0 l 323 0 l 94 965 l 25 965 l 256 0 "},"-":{"x_min":41.671875,"x_max":272.21875,"ha":313,"o":"m 41 247 l 272 247 l 272 306 l 41 306 l 41 247 "},"Q":{"x_min":61.109375,"x_max":438.890625,"ha":508,"o":"m 219 -120 l 290 -120 l 290 -6 b 438 193 388 9 438 100 l 438 777 b 254 980 438 886 370 980 b 61 779 126 980 61 883 l 61 191 b 219 -6 61 93 119 8 l 219 -120 m 254 915 b 368 777 333 915 368 845 l 368 193 b 254 56 368 119 330 56 b 134 191 172 56 134 120 l 134 779 b 254 915 134 854 172 915 "},"M":{"x_min":59.71875,"x_max":569.4375,"ha":622,"o":"m 155 780 l 195 483 l 272 15 l 350 15 l 427 483 l 475 781 l 477 781 l 476 476 l 495 0 l 569 0 l 531 973 l 441 973 l 355 415 l 313 134 l 276 415 l 191 973 l 97 973 l 59 0 l 130 0 l 148 476 l 152 780 l 155 780 "},"C":{"x_min":61.109375,"x_max":440.28125,"ha":506,"o":"m 254 -9 b 440 194 381 -9 440 94 l 440 277 l 369 277 l 369 194 b 254 56 369 122 333 56 b 134 195 175 56 134 126 l 134 775 b 254 915 134 862 184 915 b 370 775 330 915 370 870 l 370 687 l 440 687 l 440 776 b 252 981 440 905 366 981 b 61 775 136 981 61 900 l 61 197 b 254 -9 61 83 133 -9 "},"L":{"x_min":72.21875,"x_max":358.328125,"ha":400,"o":"m 145 65 l 145 972 l 72 972 l 72 0 l 358 0 l 358 65 l 145 65 "},"!":{"x_min":73.609375,"x_max":145.828125,"ha":219,"o":"m 144 188 l 145 973 l 73 973 l 75 188 l 144 188 m 143 0 l 143 120 l 75 120 l 75 0 l 143 0 "}," ":{"x_min":0,"x_max":0,"ha":221},"X":{"x_min":11.109375,"x_max":431.9375,"ha":456,"o":"m 431 973 l 356 973 l 301 780 l 218 462 l 141 779 l 87 973 l 11 973 l 181 362 l 52 0 l 127 0 l 218 262 l 300 0 l 375 0 l 256 363 l 431 973 "},"P":{"x_min":72.21875,"x_max":450,"ha":511,"o":"m 450 777 b 261 972 450 920 350 972 l 72 972 l 72 0 l 145 0 l 145 262 l 261 262 b 450 459 381 262 450 362 l 450 777 m 379 459 b 261 327 379 376 320 327 l 145 327 l 145 906 l 261 906 b 379 777 336 906 379 858 l 379 459 "},"T":{"x_min":20.828125,"x_max":362.5,"ha":394,"o":"m 362 972 l 20 972 l 20 908 l 156 908 l 156 0 l 227 0 l 227 908 l 362 908 l 362 972 "},"a":{"x_min":31.9375,"x_max":351.390625,"ha":390,"o":"m 279 0 l 351 0 l 230 776 l 151 776 l 31 0 l 104 0 l 136 202 l 248 202 l 248 204 l 279 0 m 141 263 l 159 379 l 191 629 l 222 379 l 238 263 l 141 263 "},"N":{"x_min":75,"x_max":469.4375,"ha":550,"o":"m 397 972 l 397 369 l 408 168 l 352 361 l 144 972 l 75 972 l 75 0 l 148 0 l 148 584 l 137 795 l 197 593 l 401 0 l 469 0 l 469 972 l 397 972 "},"2":{"x_min":50,"x_max":406.9375,"ha":460,"o":"m 406 791 b 230 972 406 926 305 972 b 56 788 145 972 56 919 l 56 715 l 125 715 l 125 786 b 230 908 125 856 161 908 b 336 790 280 908 336 880 l 336 641 b 215 497 336 593 272 545 b 50 272 138 433 54 354 l 50 0 l 406 0 l 406 66 l 123 66 l 123 272 b 261 448 126 329 193 390 b 406 641 334 512 406 562 l 406 791 "},"j":{"x_min":31.9375,"x_max":344.4375,"ha":407,"o":"m 191 -8 b 344 159 295 -8 344 73 l 344 776 l 273 776 l 273 159 b 191 58 273 106 244 58 b 105 159 134 58 105 108 l 105 226 l 31 226 l 31 159 b 191 -8 31 68 94 -8 "},"Z":{"x_min":19.4375,"x_max":386.109375,"ha":421,"o":"m 386 972 l 51 972 l 51 906 l 312 906 l 19 55 l 19 0 l 383 0 l 383 68 l 97 68 l 386 919 l 386 972 "},"u":{"x_min":58.328125,"x_max":370.828125,"ha":440,"o":"m 370 776 l 298 776 l 298 159 b 213 56 298 102 277 56 b 131 159 155 56 131 108 l 131 776 l 58 776 l 58 159 b 213 -8 58 66 118 -8 b 370 159 319 -8 370 73 l 370 776 "},"1":{"x_min":20.828125,"x_max":173.609375,"ha":249,"o":"m 20 972 l 20 906 l 102 906 l 102 0 l 173 0 l 173 972 l 20 972 "},"k":{"x_min":61.109375,"x_max":409.71875,"ha":417,"o":"m 400 776 l 323 776 b 215 525 288 695 250 606 l 127 311 l 134 526 l 134 776 l 61 776 l 61 0 l 134 0 l 134 198 l 151 230 l 211 143 l 322 0 l 409 0 l 190 298 l 400 776 "},"€":{"x_min":2.78125,"x_max":359.71875,"ha":413,"o":"m 2 352 l 45 352 l 45 305 l 2 305 l 2 261 l 45 261 l 45 161 b 205 -8 45 68 105 -8 b 359 175 311 -8 359 59 l 290 175 b 205 59 290 100 262 59 b 119 161 148 59 119 109 l 119 261 l 244 261 l 244 305 l 119 305 l 119 352 l 244 352 l 244 398 l 119 398 l 119 612 b 205 715 119 680 156 715 b 288 602 261 715 288 679 l 358 602 b 202 780 358 716 297 780 b 45 612 108 780 45 704 l 45 398 l 2 398 l 2 352 "},"t":{"x_min":20.828125,"x_max":302.78125,"ha":335,"o":"m 302 776 l 20 776 l 20 712 l 127 712 l 127 0 l 197 0 l 197 712 l 302 712 l 302 776 "},"W":{"x_min":34.71875,"x_max":729.171875,"ha":758,"o":"m 543 109 l 501 422 l 416 973 l 344 973 l 261 420 l 225 111 l 220 111 l 186 420 l 108 973 l 34 973 l 173 0 l 268 0 l 362 641 l 381 826 l 404 641 l 501 0 l 593 0 l 729 973 l 658 973 l 580 422 l 545 109 l 543 109 "},"v":{"x_min":34.71875,"x_max":352.78125,"ha":397,"o":"m 193 106 l 173 343 l 106 777 l 34 777 l 151 0 l 233 0 l 352 777 l 280 777 l 213 344 l 195 106 l 193 106 "},"s":{"x_min":48.578125,"x_max":362.53125,"ha":417,"o":"m 206 -8 b 362 158 312 -8 362 68 l 362 220 b 226 372 363 294 293 333 b 123 476 163 409 126 436 l 123 618 b 198 715 123 684 155 715 b 272 619 251 715 272 672 l 272 513 l 341 513 l 341 620 b 198 781 341 713 290 781 b 48 618 97 781 48 711 l 48 473 b 204 305 50 397 116 356 b 291 216 255 275 291 254 l 291 158 b 206 56 291 101 263 56 b 122 159 148 56 119 105 l 122 240 l 48 240 l 48 159 b 206 -8 47 58 115 -8 "},"B":{"x_min":72.21875,"x_max":438.890625,"ha":507,"o":"m 438 219 b 355 347 438 272 420 326 b 436 500 415 384 436 441 l 437 777 b 245 972 437 895 369 972 l 72 972 l 72 0 l 294 0 b 438 151 363 0 438 43 l 438 219 m 245 905 b 366 777 337 904 366 851 l 366 501 b 248 366 366 418 298 366 l 145 366 l 145 905 l 245 905 m 366 151 b 294 65 366 125 358 65 l 145 65 l 145 302 l 275 302 b 366 219 327 301 366 275 l 366 151 "},"?":{"x_min":37.5,"x_max":372.21875,"ha":426,"o":"m 227 186 l 227 281 b 287 458 227 354 234 411 b 372 651 354 520 370 586 l 372 801 b 208 981 372 936 284 981 b 37 798 125 981 37 929 l 37 725 l 108 725 l 108 795 b 208 918 108 866 138 918 b 301 800 256 918 301 890 l 301 651 b 244 505 300 611 287 551 b 158 281 169 438 158 363 l 158 186 l 227 186 m 227 0 l 227 118 l 159 118 l 159 0 l 227 0 "},"H":{"x_min":75,"x_max":452.78125,"ha":533,"o":"m 381 972 l 381 313 l 148 313 l 148 972 l 75 972 l 75 0 l 148 0 l 148 248 l 381 248 l 381 0 l 452 0 l 452 972 l 381 972 "},"c":{"x_min":51.390625,"x_max":365.28125,"ha":424,"o":"m 211 -8 b 365 159 316 -8 365 69 l 365 230 l 293 230 l 293 159 b 211 59 293 93 268 59 b 125 161 154 59 125 101 l 125 615 b 211 718 125 683 162 718 b 294 615 266 718 294 676 l 294 538 l 363 538 l 363 615 b 209 783 363 720 304 783 b 51 615 113 783 51 715 l 51 161 b 211 -8 51 59 111 -8 "},"&":{"x_min":45.921875,"x_max":465.359375,"ha":472,"o":"m 284 500 b 337 515 308 516 325 513 l 337 173 b 229 54 337 101 298 54 b 130 172 175 54 130 91 l 130 370 b 234 508 130 441 166 504 l 241 508 l 241 572 l 233 572 b 118 719 145 572 118 641 l 118 773 b 223 909 118 856 154 909 b 323 775 297 909 323 851 l 323 693 l 393 693 l 393 775 b 223 975 393 894 334 975 b 45 773 104 975 45 884 l 45 718 b 133 536 45 633 72 572 b 58 370 82 497 58 437 l 58 172 b 229 -11 58 45 136 -11 b 407 172 309 -11 407 29 l 407 505 b 465 525 423 505 445 511 l 462 597 b 279 568 394 545 340 612 l 284 500 "},"I":{"x_min":73.609375,"x_max":147.21875,"ha":219,"o":"m 147 0 l 147 972 l 73 972 l 73 0 l 147 0 "},"G":{"x_min":61.109375,"x_max":438.890625,"ha":490,"o":"m 225 329 l 225 265 l 366 265 l 366 193 b 252 58 366 100 322 58 b 134 194 175 58 134 112 l 134 770 b 251 911 134 852 180 911 b 369 772 334 911 369 848 l 369 683 l 438 683 l 438 772 b 250 976 438 891 368 976 b 61 770 131 976 61 883 l 61 194 b 252 -8 61 65 138 -8 b 437 193 369 -8 437 77 l 437 329 l 225 329 "},"`":{"x_min":12.5,"x_max":143.0625,"ha":183,"o":"m 80 852 l 143 852 l 91 973 l 12 973 l 80 852 "},"U":{"x_min":69.4375,"x_max":447.21875,"ha":526,"o":"m 447 972 l 376 972 l 376 193 b 258 54 376 118 345 54 b 143 194 176 54 143 125 l 143 972 l 69 972 l 69 194 b 258 -11 69 81 141 -11 b 447 193 386 -11 447 90 l 447 972 "},"F":{"x_min":72.21875,"x_max":395.828125,"ha":428,"o":"m 395 908 l 395 972 l 72 972 l 72 0 l 145 0 l 145 256 l 358 256 l 358 322 l 145 322 l 145 908 l 395 908 "},"r":{"x_min":59.71875,"x_max":366.671875,"ha":424,"o":"m 366 141 b 308 241 366 184 348 220 b 361 361 350 269 361 316 l 361 615 b 206 776 361 733 279 776 l 59 776 l 59 0 l 134 0 l 134 198 l 234 198 b 293 141 272 198 293 175 l 293 0 l 366 0 l 366 141 m 134 711 l 206 711 b 290 615 256 711 290 675 l 290 361 b 206 263 290 298 243 263 l 134 263 l 134 711 "},":":{"x_min":41.671875,"x_max":111.109375,"ha":151,"o":"m 111 0 l 111 127 l 41 127 l 41 0 l 111 0 m 111 309 l 111 437 l 41 437 l 41 309 l 111 309 "},"x":{"x_min":9.71875,"x_max":361.109375,"ha":383,"o":"m 361 777 l 284 777 l 218 543 b 183 376 184 413 183 377 l 148 543 l 84 777 l 9 777 l 145 291 l 41 0 l 119 0 l 152 101 l 181 208 l 209 100 l 243 0 l 315 0 l 219 291 l 361 777 "},"V":{"x_min":38.890625,"x_max":427.78125,"ha":472,"o":"m 230 130 l 197 425 l 112 973 l 38 973 l 187 0 l 275 0 l 427 973 l 352 973 l 268 425 l 233 130 l 230 130 "},"h":{"x_min":62.5,"x_max":375,"ha":446,"o":"m 302 776 l 302 261 l 136 261 l 136 776 l 62 776 l 62 0 l 136 0 l 136 194 l 302 194 l 302 0 l 375 0 l 375 776 l 302 776 "},"0":{"x_min":61.109375,"x_max":438.890625,"ha":510,"o":"m 254 -9 b 438 193 377 -9 438 90 l 438 777 b 254 980 438 886 370 980 b 61 779 126 980 61 883 l 61 191 b 254 -9 61 81 133 -9 m 254 915 b 302 904 272 915 288 911 l 155 108 b 134 191 141 131 134 161 l 134 779 b 254 915 134 854 172 915 m 368 777 l 368 193 b 254 56 368 119 330 56 b 201 66 233 56 216 59 l 345 862 b 368 777 361 837 368 806 "},".":{"x_min":41.671875,"x_max":111.109375,"ha":156,"o":"m 111 0 l 111 127 l 41 127 l 41 0 l 111 0 "},";":{"x_min":41.671875,"x_max":111.109375,"ha":151,"o":"m 111 309 l 111 437 l 41 437 l 41 309 l 111 309 m 100 -97 l 111 4 l 111 118 l 41 118 l 41 -97 l 100 -97 "},"f":{"x_min":59.71875,"x_max":327.78125,"ha":361,"o":"m 327 712 l 327 776 l 59 776 l 59 0 l 134 0 l 134 201 l 298 201 l 298 268 l 134 268 l 134 712 l 327 712 "},"i":{"x_min":61.109375,"x_max":133.328125,"ha":194,"o":"m 133 0 l 133 776 l 61 776 l 61 0 l 133 0 "},"A":{"x_min":36.109375,"x_max":422.21875,"ha":464,"o":"m 350 0 l 422 0 l 270 972 l 186 972 l 36 0 l 109 0 l 150 261 l 150 260 l 309 260 l 309 261 l 350 0 m 158 326 l 194 562 l 229 850 l 263 562 l 301 326 l 158 326 "},"6":{"x_min":61.109375,"x_max":436.109375,"ha":497,"o":"m 254 495 b 133 427 213 495 161 473 l 133 783 b 252 918 136 866 180 918 b 361 781 326 918 361 861 l 361 733 l 431 733 l 431 781 b 252 981 431 901 368 981 b 61 783 137 981 61 901 l 61 191 b 251 -8 61 80 130 -8 b 436 191 372 -8 433 77 l 436 294 b 254 495 436 425 363 495 m 365 193 b 251 59 365 120 326 59 b 134 191 175 59 134 120 l 134 291 b 254 431 134 369 179 431 b 365 294 326 431 365 388 l 365 193 "},"O":{"x_min":61.109375,"x_max":438.890625,"ha":508,"o":"m 254 -9 b 438 193 377 -9 438 90 l 438 777 b 254 980 438 886 370 980 b 61 779 126 980 61 883 l 61 191 b 254 -9 61 81 133 -9 m 254 915 b 368 777 333 915 368 845 l 368 193 b 254 56 368 119 330 56 b 134 191 172 56 134 120 l 134 779 b 254 915 134 854 172 915 "},"n":{"x_min":62.5,"x_max":388.890625,"ha":460,"o":"m 62 776 l 62 0 l 136 0 l 136 406 l 123 608 l 179 411 l 320 0 l 388 0 l 388 776 l 315 776 l 315 368 l 330 156 l 270 359 l 130 776 l 62 776 "},"3":{"x_min":38.1875,"x_max":410.40625,"ha":472,"o":"m 170 391 l 224 391 b 339 243 311 391 339 320 l 339 190 b 227 55 339 111 297 55 b 107 188 152 55 107 108 l 107 270 l 38 270 l 38 188 b 227 -12 38 70 115 -12 b 410 190 343 -12 410 79 l 410 244 b 315 427 410 327 385 390 b 399 591 374 463 399 525 l 399 793 b 229 973 399 918 321 973 b 49 791 147 973 49 934 l 49 718 l 120 718 l 120 790 b 229 909 120 862 160 909 b 327 791 284 909 327 872 l 327 591 b 222 458 327 522 290 462 l 170 458 l 170 391 "},"9":{"x_min":40.28125,"x_max":415.28125,"ha":486,"o":"m 415 734 b 230 975 415 861 363 975 b 40 736 94 975 40 852 l 40 600 b 222 355 40 486 88 355 b 345 438 277 355 325 390 l 345 193 b 225 59 345 118 305 59 b 112 194 151 59 112 119 l 112 241 l 41 241 l 41 194 b 225 -8 41 86 111 -8 b 415 193 344 -8 415 77 l 415 734 m 343 601 b 230 422 343 527 311 422 b 112 600 131 422 112 530 l 112 736 b 230 908 112 819 145 908 b 343 734 319 908 343 818 l 343 601 "},"m":{"x_min":48.609375,"x_max":475,"ha":529,"o":"m 395 595 l 388 351 l 404 0 l 475 0 l 445 777 l 361 777 l 281 287 l 263 126 l 247 288 l 159 777 l 77 777 l 48 0 l 116 0 l 130 350 l 133 600 l 136 600 l 168 352 l 227 18 l 298 18 l 358 356 l 393 595 l 395 595 "},"8":{"x_min":51.390625,"x_max":425,"ha":490,"o":"m 425 645 l 425 756 b 240 981 425 893 362 981 b 51 756 112 981 51 880 l 51 645 b 138 455 51 573 83 497 b 51 288 77 416 51 361 l 51 188 b 241 -8 51 70 130 -8 b 425 186 352 -8 422 73 l 425 288 b 344 455 425 355 395 418 b 425 645 408 497 422 575 m 354 288 l 354 188 b 241 58 354 108 311 58 b 123 188 166 58 123 112 l 123 288 b 241 419 123 365 172 419 b 354 288 313 415 354 366 m 241 486 b 120 645 161 486 120 575 l 120 756 b 240 918 120 852 165 918 b 354 756 320 918 354 850 l 354 645 b 241 486 354 570 319 486 "},"l":{"x_min":61.109375,"x_max":300,"ha":339,"o":"m 133 65 l 133 776 l 61 776 l 61 0 l 300 0 l 300 65 l 133 65 "},"p":{"x_min":59.71875,"x_max":372.21875,"ha":428,"o":"m 372 618 b 216 776 372 734 288 776 l 59 776 l 59 0 l 134 0 l 134 205 l 216 205 b 372 368 315 205 372 284 l 372 618 m 301 368 b 216 272 301 306 259 272 l 134 272 l 134 711 l 216 711 b 301 618 270 711 301 676 l 301 368 "},"4":{"x_min":29.171875,"x_max":423.609375,"ha":464,"o":"m 423 326 l 358 326 l 358 933 l 287 933 l 287 326 l 102 326 l 256 997 l 187 997 l 29 315 l 29 265 l 287 265 l 287 0 l 358 0 l 358 265 l 423 265 l 423 326 "},"R":{"x_min":73.171875,"x_max":442.609375,"ha":506,"o":"m 442 170 b 357 298 442 225 416 276 b 437 451 409 331 437 397 l 437 775 b 249 972 439 916 355 970 l 73 972 l 73 0 l 146 0 l 146 254 l 284 254 b 370 170 338 254 370 220 l 370 0 l 442 0 l 442 170 m 146 906 l 249 906 b 366 775 327 906 366 855 l 366 451 b 249 319 366 365 299 319 l 146 319 l 146 906 "},"5":{"x_min":63.890625,"x_max":438.890625,"ha":493,"o":"m 255 503 b 136 444 213 503 163 481 l 136 906 l 416 906 l 416 970 l 63 970 l 63 337 l 134 337 b 255 438 150 395 208 438 b 368 301 329 438 368 396 l 368 185 b 255 55 368 112 331 55 b 136 185 179 55 136 112 l 136 249 l 63 249 l 63 185 b 255 -11 63 77 130 -11 b 438 185 376 -11 438 77 l 438 301 b 255 503 438 441 366 503 "},"o":{"x_min":51.390625,"x_max":363.890625,"ha":426,"o":"m 209 -8 b 363 159 312 -8 363 73 l 363 618 b 209 783 363 706 305 783 b 51 618 105 783 51 704 l 51 158 b 209 -8 51 66 111 -8 m 209 718 b 291 618 268 718 291 668 l 291 159 b 209 59 291 104 266 59 b 125 158 152 59 125 105 l 125 618 b 209 718 125 673 152 718 "}}}
